<?xml version="1.0"?>
<svg xmlns="http://www.w3.org/2000/svg" xmlns:xlink="http://www.w3.org/1999/xlink" xmlns:svgjs="http://svgjs.com/svgjs" version="1.1" width="512" height="512" x="0" y="0" viewBox="0 0 42 61" style="enable-background:new 0 0 512 512" xml:space="preserve" class=""><g><g xmlns="http://www.w3.org/2000/svg" id="Page-1" fill="none" fill-rule="evenodd"><g id="008---Gaming-Chair" fill="rgb(0,0,0)" fill-rule="nonzero"><path id="Shape" d="m1 29h1.18l1.825 9.123c.16589423 4.4378857 3.43626366 8.1440813 7.819 8.861v-.018c.0575393.0165427.1164393.0279211.176.034h5v3h-7c-1.65685425 0-3 1.3431458-3 3v1c.0017154.4895249.18443893.9611154.513 1.324-.81369294 1.1733411-.69138627 2.7568389.29283448 3.7913123.98422076 1.0344733 2.55967172 1.2354176 3.77204592.4811138 1.2123742-.7543039 1.7282402-2.2564046 1.2351196-3.5964261h5.368c-.1174147.3204379-.1786467.6587359-.181 1 0 1.6568542 1.3431458 3 3 3s3-1.3431458 3-3c-.0033144-.3414397-.0655622-.679743-.184-1h5.368c-.1184378.320257-.1806856.6585603-.184 1-.0007487 1.2870653.8195642 2.4311976 2.0387751 2.8435839 1.219211.4123862 2.56562.0011266 3.3463151-1.0221295.7806951-1.023256.8216991-2.4304768.1019098-3.4974544.3285611-.3628846.5112846-.8344751.513-1.324v-1c0-1.6568542-1.3431458-3-3-3h-7v-3h5c.0582128-.0063111.1157642-.0176876.172-.034v.018c4.3862944-.7130736 7.6612945-4.4202499 7.828-8.861l1.82-9.123h1.18c.5522847 0 1-.4477153 1-1s-.4477153-1-1-1h-4c-.5522847 0-1 .4477153-1 1s.4477153 1 1 1h.78l-1.047 5.235c-.708577-.7614347-1.6932663-1.2064004-2.733-1.235-.2861018.0037511-.5704955.0447629-.846.122-.01-.52-.033-1.071-.06-1.685-.044-.993-.094-2.118-.094-3.437.0015244-2.1832145.6973999-4.3093646 1.987-6.071 1.2655281-1.7218928 1.9685462-3.792531 2.013-5.929 0-3.568-1.894-4.679-3.726-5.753-1.2682036-.65592595-2.3946752-1.55540412-3.315-2.647-.1309055-1.29440206-.8863418-2.44305365-2.023-3.076-1.494-2.536-2.715-4.524-6.936-4.524s-5.442 1.988-6.936 4.521c-1.137473.63353731-1.893034 1.78349888-2.023 3.079-.9200396 1.09267648-2.0465305 1.99318954-3.315 2.65-1.832 1.071-3.726 2.182-3.726 5.75.04445379 2.136469.74747194 4.2071072 2.013 5.929 1.28960005 1.7616354 1.98547557 3.8877855 1.987 6.071 0 1.319-.05 2.444-.094 3.437-.027.614-.05 1.165-.06 1.685-.27550451-.0772371-.55989821-.1182489-.846-.122-1.03973373.0285996-2.02442297.4735653-2.733 1.235l-1.047-5.235h.78c.55228475 0 1-.4477153 1-1s-.44771525-1-1-1h-4c-.55228475 0-1 .4477153-1 1s.44771525 1 1 1zm13-21c0-1.1045695.8954305-2 2-2h10c1.1045695 0 2 .8954305 2 2v4c0 1.1045695-.8954305 2-2 2h-10c-1.1045695 0-2-.8954305-2-2zm9.308 8c.659 1.86 2.554 8.07 2.678 18h-9.972c.124-9.93 2.019-16.14 2.678-18zm5.692 20c.5522847 0 1 .4477153 1 1v.778c-1.8152817-.0881935-3.6326192.1253724-5.378.632-1.1832579.3233442-2.3972944.5211027-3.622.59-1.2247056-.0688973-2.4387421-.2666558-3.622-.59-1.7454909-.5060835-3.5627373-.7196386-5.378-.632v-.778c0-.5522847.4477153-1 1-1zm-18 21c0 .5522847-.4477153 1-1 1-.55228475 0-1-.4477153-1-1s.44771525-1 1-1c.5522847 0 1 .4477153 1 1zm11 0c0 .5522847-.4477153 1-1 1s-1-.4477153-1-1 .4477153-1 1-1 1 .4477153 1 1zm10 1c-.5522847 0-1-.4477153-1-1s.4477153-1 1-1 1 .4477153 1 1-.4477153 1-1 1zm1-5v1h-24v-1c0-.5522847.44771525-1 1-1h22c.5522847 0 1 .4477153 1 1zm-10-3h-4v-3h4zm1-5h-11.424c-.3884904-1.711155-.5787423-3.4613381-.567-5.216 1.6613795-.099065 3.327214.0955814 4.921.575 1.3295144.360127 2.6941546.5750494 4.07.641 1.3758454-.0659506 2.7404856-.280873 4.07-.641 1.5939302-.4787221 3.2596407-.673354 4.921-.575.0111041 1.7542999-.1771023 3.504184-.561 5.216zm12-7c-.1340663 2.8199218-1.8364273 5.3271195-4.408 6.492.2970316-1.8151312.4335595-3.6529035.408-5.492v-.409c-.0421881-1.0600202.2366445-2.1080822.8-3.007.3050274-.348331.7376739-.5588856 1.2-.584.082 0 2 .034 2 3zm-3.737-26.028c1.764 1.035 2.737 1.606 2.737 4.028-.0514058 1.7644468-.6504133 3.4692068-1.714 4.878-1.4863595 2.0773692-2.2856815 4.5676454-2.286 7.122 0 1.363.051 2.512.1 3.525.0635774.9797338.072925 1.9622339.028 2.943-.065.084-.126.173-.184.264-.5388129-.4699636-1.2290311-.7298606-1.944-.732h-1.014c.0481983-6.0940322-.8146662-12.1610479-2.56-18h.574c2.209139 0 4-1.790861 4-4v-1.54c.7138956.5620416 1.4705213 1.0675732 2.263 1.512zm-11.263-9.972c2.32 0 3.312.67 4.25 2h-8.5c.938-1.33 1.93-2 4.25-2zm-12.286 18.878c-1.06358672-1.4087932-1.66259424-3.1135532-1.714-4.878 0-2.422.973-2.993 2.737-4.028.7924787-.4444268 1.5491044-.9499584 2.263-1.512v1.54c0 2.209139 1.790861 4 4 4h.574c-1.7453338 5.8389521-2.6081983 11.9059678-2.56 18h-1.014c-.7139352.0028601-1.4029668.2627113-1.941.732-.058-.091-.119-.179-.184-.264-.044925-.9807661-.0355774-1.9632662.028-2.943.046-1.013.1-2.162.1-3.525-.0011935-2.5546833-.8015741-5.0449895-2.289-7.122zm-.714 14.122c.46220407.0247457.89486863.2349486 1.2.583.56360853.8991773.8424539 1.9476358.8 3.008v.409c-.02555946 1.8390965.1109684 3.6768688.408 5.492-2.57157272-1.1648805-4.27393365-3.6720782-4.408-6.492 0-2.8 1.678-2.99 2-3z" fill="#feaa08" data-original="#000000" style=""/></g></g></g></svg>
