<?xml version="1.0"?>
<svg xmlns="http://www.w3.org/2000/svg" xmlns:xlink="http://www.w3.org/1999/xlink" xmlns:svgjs="http://svgjs.com/svgjs" version="1.1" width="512" height="512" x="0" y="0" viewBox="0 0 42 60" style="enable-background:new 0 0 512 512" xml:space="preserve" class=""><g><g xmlns="http://www.w3.org/2000/svg" id="Page-1" fill="none" fill-rule="evenodd"><g id="026---Gaming-Mouse" fill="rgb(0,0,0)" fill-rule="nonzero"><path id="Shape" d="m22 0h-2c-1.1045695 0-2 .8954305-2 2v2.035c-2.982.184-8.676 1.176-10.832 4.41-.03423366.05066919-.06337532.10459801-.087.161-1.8759009 4.5762643-2.91928705 9.4508181-3.081 14.394v10.629l-3.735 8.308c-.29745898.6553154-.34581113 1.3965965-.136 2.085 1.163 3.778 4.061 10.447 10.412 12.868.538.317 5.43 3.11 10.459 3.11s9.921-2.793 10.459-3.11c6.351-2.421 9.249-9.09 10.412-12.868.2098368-.6880642.1614812-1.4290429-.136-2.084l-3.735-8.309v-10.629c-.161713-4.9431819-1.2050991-9.8177357-3.081-14.394-.0236247-.05640199-.0527663-.11033081-.087-.161-2.156-3.234-7.85-4.226-10.832-4.41v-2.035c0-1.1045695-.8954305-2-2-2zm-2 24h2v5.541c-.2846933.2421866-.6307523.4010277-1 .459-.3690988-.057834-.7151088-.2163066-1-.458zm2.9-3.025-.518 1.025h-2.763l-.514-1.024c-.0689019-.1393019-.1048286-.2925894-.105-.448v-6.5c.012-.172.16-1.029 2-1.029s1.989.857 2 1v6.528c.0018551.1550671-.0323801.3084407-.1.448zm-.9-18.975v2h-2v-2zm-12.4 40.531-.553-3.32c-.06188171-.3715205-.19316915-.7280659-.387-1.051l-2.66-4.437v-8.642l2.741 2.193c.20817243.1672893.34128392.4104876.37.676l1.8 12.373c.0322304.2566319-.0362279.5157698-.191.723zm-7.561.9c-.06717879-.2236242-.05010275-.4641118.048-.676l3-6.669 1.859 3.1c.06559546.1075061.10974215.2267022.13.351l.938 5.626v.015l1.652 9.087c-4.473-2.556-6.677-7.748-7.625-10.831zm31.3-5.273c-.1931176.3224592-.3240474.6782761-.386 1.049l-.553 3.323-1.113-1.483c-.1511963-.2002713-.2208755-.4504016-.195-.7l1.8-12.412c.0315444-.2588562.1637473-.4948815.368-.657l2.74-2.197v8.642zm6.622 5.273c-.948 3.083-3.152 8.275-7.628 10.832l1.652-9.087c0-.005 0-.01 0-.015l.938-5.627c.0203665-.1234911.0641523-.2419504.129-.349l1.86-3.1 3 6.669c.0987777.2131688.1155111.4552686.047.68zm-6.845-33.951c1.6749945 4.1585768 2.6495197 8.5659042 2.884 13.043l-3.984 3.188c-.6078654.4817466-1.0027593 1.1825038-1.1 1.952l-1.8 12.411c-.0977965.7718224.1091959 1.5513624.577 2.173l2.253 3-1.846 10.111c-1.231.666-5.211 2.642-9.1 2.642s-7.869-1.976-9.1-2.642l-1.838-10.107 2.254-3c.4699143-.6274236.675585-1.4138538.573-2.191l-1.8-12.372c-.0938287-.7758878-.4889058-1.4837941-1.1-1.971l-3.985-3.189c.23265618-4.4785604 1.2058378-8.8876138 2.88-13.048 1.691-2.399 6.916-3.48 10.116-3.48h1v5.08c-2.339.367-3 2-3 2.92v6.528c.0005215.4657063.108669.924991.316 1.342l.579 1.154c.0689019.1393019.1048286.2925894.105.448v6.528c.0000566.2651948.1054506.5195073.293.707.7230074.7347987 1.6810608 1.1924134 2.707 1.293 1.0259392-.1005866 1.9839926-.5582013 2.707-1.293.1875494-.1874927.2929434-.4418052.293-.707v-6.528c-.0016999-.1547301.0325313-.3077438.1-.447l.579-1.156c.2091859-.4161898.319061-.8752008.321-1.341v-6.528c0-.918-.661-2.553-3-2.92v-5.08h1c3.205 0 8.425 1.081 10.116 3.48z" fill="#feaa08" data-original="#000000" style="" class=""/></g></g></g></svg>
